<svg xmlns="http://www.w3.org/2000/svg" width="146" height="47" fill="none"><rect width="146" height="47" fill="#000" rx="6"/><path fill="#fff" d="M29.855 23.868a6.04 6.04 0 0 1 .8-2.923 6.1 6.1 0 0 1 2.123-2.178 6.26 6.26 0 0 0-2.159-1.906 6.3 6.3 0 0 0-2.79-.746c-2.084-.216-4.102 1.235-5.164 1.235-1.082 0-2.715-1.213-4.475-1.177a6.64 6.64 0 0 0-3.22.951 6.56 6.56 0 0 0-2.327 2.4c-2.399 4.115-.61 10.161 1.688 13.487 1.15 1.628 2.493 3.447 4.25 3.383 1.721-.071 2.364-1.087 4.44-1.087 2.057 0 2.66 1.087 4.453 1.046 1.846-.03 3.01-1.636 4.12-3.28a13.4 13.4 0 0 0 1.882-3.8 5.9 5.9 0 0 1-2.632-2.162 5.84 5.84 0 0 1-.989-3.243m-3.387-9.94A5.95 5.95 0 0 0 27.85 9.64a6.17 6.17 0 0 0-3.978 2.04 5.7 5.7 0 0 0-1.124 1.925 5.65 5.65 0 0 0-.295 2.205c.77.008 1.53-.158 2.226-.483a5.1 5.1 0 0 0 1.79-1.399M51.6 32.271h-5.87l-1.41 4.124h-2.486l5.56-15.258h2.583l5.56 15.258H53.01zm-5.262-1.903h4.653l-2.294-6.693h-.064zm21.208.466c0 3.457-1.868 5.677-4.686 5.677a3.83 3.83 0 0 1-2.049-.47 3.8 3.8 0 0 1-1.484-1.476h-.053v5.51H56.97V25.271h2.23v1.85h.043a3.97 3.97 0 0 1 1.514-1.473 4 4 0 0 1 2.062-.494c2.85 0 4.728 2.232 4.728 5.68m-2.37 0c0-2.253-1.174-3.733-2.966-3.733-1.76 0-2.946 1.512-2.946 3.733 0 2.241 1.185 3.742 2.946 3.742 1.792 0 2.966-1.47 2.966-3.742m14.728 0c0 3.457-1.867 5.677-4.686 5.677a3.84 3.84 0 0 1-2.048-.47 3.8 3.8 0 0 1-1.484-1.476h-.054v5.51h-2.305V25.271h2.231v1.85h.043a3.97 3.97 0 0 1 1.513-1.473 4 4 0 0 1 2.062-.494c2.85 0 4.728 2.232 4.728 5.68m-2.369 0c0-2.253-1.174-3.733-2.967-3.733-1.76 0-2.945 1.512-2.945 3.733 0 2.241 1.184 3.742 2.945 3.742 1.793 0 2.967-1.47 2.967-3.742m10.537 1.31c.17 1.513 1.654 2.506 3.682 2.506 1.942 0 3.34-.993 3.34-2.357 0-1.185-.843-1.894-2.839-2.38l-1.996-.476c-2.828-.677-4.14-1.987-4.14-4.113 0-2.633 2.315-4.441 5.603-4.441 3.255 0 5.486 1.808 5.56 4.44h-2.326c-.14-1.522-1.41-2.441-3.266-2.441s-3.128.93-3.128 2.283c0 1.079.812 1.714 2.797 2.2l1.697.412c3.16.74 4.472 1.998 4.472 4.23 0 2.855-2.295 4.642-5.945 4.642-3.415 0-5.72-1.745-5.87-4.505zm14.431-9.506v2.633h2.135v1.808h-2.135v6.133c0 .952.427 1.396 1.366 1.396q.38-.006.758-.052v1.797a6.4 6.4 0 0 1-1.28.106c-2.273 0-3.16-.846-3.16-3.004V27.08h-1.633v-1.808h1.633v-2.633zm3.372 8.196c0-3.5 2.08-5.7 5.325-5.7 3.255 0 5.326 2.2 5.326 5.7 0 3.51-2.06 5.699-5.326 5.699s-5.325-2.189-5.325-5.699m8.303 0c0-2.401-1.111-3.819-2.978-3.819s-2.977 1.428-2.977 3.819c0 2.41 1.109 3.816 2.977 3.816s2.978-1.406 2.978-3.816m4.249-5.564h2.198v1.894h.053c.15-.593.5-1.116.99-1.48a2.7 2.7 0 0 1 1.711-.53q.399 0 .79.086v2.136a3.3 3.3 0 0 0-1.036-.139 2.35 2.35 0 0 0-1.795.733 2.29 2.29 0 0 0-.607 1.827v6.598h-2.304zm16.368 7.858c-.31 2.02-2.295 3.405-4.835 3.405-3.266 0-5.293-2.168-5.293-5.647 0-3.489 2.038-5.752 5.196-5.752 3.107 0 5.061 2.114 5.061 5.487v.783h-7.931v.137a2.895 2.895 0 0 0 1.811 2.937c.384.155.796.228 1.21.213a2.56 2.56 0 0 0 1.558-.355c.466-.28.829-.704 1.035-1.208zm-7.791-3.32h5.614a2.65 2.65 0 0 0-.755-2.008 2.7 2.7 0 0 0-2-.816 2.86 2.86 0 0 0-2.023.822 2.8 2.8 0 0 0-.836 2.002M44.801 8.073h2.775q1.837 0 2.866 1.093 1.03 1.088 1.03 3.032 0 1.952-1.03 3.044-1.023 1.087-2.866 1.087H44.8zm1.03.927v6.403h1.676q1.403 0 2.157-.824.756-.83.755-2.37 0-1.55-.755-2.38-.75-.828-2.157-.829zm9.234 7.432q-1.247 0-2.002-.83-.755-.834-.755-2.248 0-1.413.755-2.243.754-.835 2.002-.835 1.242 0 1.997.835.756.83.755 2.243 0 1.408-.755 2.243t-1.997.835m-1.276-1.459q.475.585 1.276.584.802 0 1.27-.578.47-.583.47-1.625 0-1.041-.47-1.619-.468-.584-1.27-.584-.8 0-1.276.584-.468.584-.469 1.62 0 1.035.47 1.618m12.605-4.594-1.66 5.95h-1.012l-1.345-4.606h-.022l-1.34 4.606h-1.012l-1.665-5.95h.99l1.19 4.84h.023l1.344-4.84h.962l1.35 4.84h.023l1.19-4.84zm.818 5.95v-5.95h.938v.95h.023q.258-.498.738-.773.48-.28 1.15-.28.973 0 1.517.59.543.582.543 1.601v3.862h-.995v-3.684q0-.727-.344-1.105-.342-.383-1.024-.383-.704 0-1.127.458t-.423 1.213v3.501zm6.23 0V8.073h.996v8.256zm4.807.103q-1.248 0-2.003-.83-.755-.834-.755-2.248 0-1.413.755-2.243.756-.835 2.003-.835 1.242 0 1.997.835.755.83.755 2.243 0 1.408-.755 2.243-.756.835-1.997.835m-1.276-1.459q.475.585 1.276.584.8 0 1.27-.578.47-.583.47-1.625 0-1.041-.47-1.619-.47-.584-1.27-.584-.801 0-1.276.584-.47.584-.47 1.62 0 1.035.47 1.618m6.998.612q.703 0 1.178-.434.48-.44.48-1.082v-.486l-1.59.097q-.6.04-.933.292a.81.81 0 0 0-.326.675q.001.425.326.681.327.258.865.258m-.224.847q-.886 0-1.436-.492-.543-.492-.543-1.293 0-.766.56-1.224.567-.458 1.597-.515l1.705-.097v-.498q0-.544-.344-.853t-.96-.309q-.567 0-.922.252a1.1 1.1 0 0 0-.452.692h-.961q.051-.795.686-1.304.641-.515 1.671-.515 1.047 0 1.66.526.617.526.617 1.414v4.113h-.944v-1.024h-.023q-.268.51-.79.818a2.16 2.16 0 0 1-1.12.31m6.397 0q-1.144 0-1.848-.84-.698-.841-.698-2.238 0-1.39.698-2.231.698-.847 1.825-.847.63 0 1.127.286.498.285.767.784h.023V8.073h.995v8.256h-.95v-1.007h-.017q-.29.521-.79.819-.497.291-1.132.291m.189-5.28q-.79 0-1.253.6-.465.595-.464 1.602 0 1.012.464 1.608.463.595 1.253.595.773 0 1.241-.6.47-.608.47-1.603t-.475-1.596a1.49 1.49 0 0 0-1.236-.607m8.914 5.28q-1.248 0-2.003-.83-.755-.834-.755-2.248 0-1.413.755-2.243.756-.835 2.003-.835 1.242 0 1.997.835.755.83.755 2.243 0 1.408-.755 2.243-.756.835-1.997.835m-1.276-1.459q.475.585 1.276.584.8 0 1.27-.578.47-.583.469-1.625 0-1.041-.469-1.619-.47-.584-1.27-.584-.801 0-1.276.584-.47.584-.47 1.62 0 1.035.47 1.618m5.035 1.356v-5.95h.938v.95h.023q.258-.498.738-.773.481-.28 1.15-.28.973 0 1.516.59.544.582.544 1.601v3.862h-.996v-3.684q0-.727-.343-1.105-.343-.383-1.024-.383-.704 0-1.127.458t-.424 1.213v3.501zm8.903-7.386h.995v1.436h1.156v.818h-1.156v3.536q0 .406.177.6.178.19.561.19.24 0 .412-.029v.835q-.195.046-.629.046-.819 0-1.167-.366-.35-.366-.349-1.225v-3.587h-.887v-.818h.887zm3.267 7.386V8.073h.995v3.256h.023q.252-.504.732-.778.487-.275 1.156-.275.974 0 1.533.6.561.601.561 1.609v3.844h-.995v-3.661q0-.721-.361-1.116-.354-.395-1.047-.395-.738 0-1.173.463-.429.464-.429 1.242v3.467zm8.65-5.19q-.691 0-1.15.482-.452.474-.497 1.224h3.232q-.017-.756-.452-1.23-.435-.475-1.133-.475m1.562 3.485h.979q-.132.79-.824 1.3-.687.508-1.654.508-1.276 0-2.008-.824t-.732-2.231q0-1.396.732-2.248.738-.853 1.963-.853 1.201 0 1.899.807.698.806.698 2.162v.378h-4.268v.057q0 .858.469 1.373.47.516 1.27.515.561 0 .956-.257t.52-.687"/></svg>