<svg xmlns="http://www.w3.org/2000/svg" width="146" height="47" fill="none"><rect width="146" height="47" fill="#000" rx="6"/><path fill="#fff" d="M73.692 25.83c-2.554 0-4.576 1.9-4.576 4.538 0 2.533 2.022 4.537 4.576 4.537 2.555 0 4.578-1.899 4.578-4.537 0-2.743-2.023-4.537-4.578-4.537m0 7.176c-1.383 0-2.554-1.16-2.554-2.744 0-1.582 1.17-2.743 2.554-2.743s2.555 1.055 2.555 2.743c0 1.583-1.17 2.744-2.555 2.744m-9.898-7.175c-2.554 0-4.577 1.899-4.577 4.537 0 2.533 2.022 4.537 4.577 4.537 2.554 0 4.576-1.899 4.576-4.537 0-2.743-2.022-4.537-4.576-4.537m0 7.175c-1.383 0-2.554-1.16-2.554-2.744 0-1.582 1.17-2.743 2.554-2.743s2.554 1.055 2.554 2.743c0 1.583-1.17 2.744-2.554 2.744m-11.815-5.803V29.1h4.577c-.107 1.055-.532 1.9-1.065 2.428-.637.633-1.703 1.371-3.511 1.371-2.874 0-5.003-2.215-5.003-5.065 0-2.849 2.235-5.065 5.002-5.065 1.49 0 2.66.634 3.512 1.372l1.384-1.371c-1.17-1.056-2.66-1.9-4.79-1.9-3.831 0-7.13 3.165-7.13 6.965s3.299 6.964 7.13 6.964c2.13 0 3.62-.634 4.897-2.005 1.277-1.266 1.703-3.06 1.703-4.432 0-.422 0-.844-.106-1.161h-6.6m48.323 1.477c-.426-1.055-1.49-2.85-3.832-2.85s-4.258 1.795-4.258 4.538c0 2.533 1.917 4.537 4.47 4.537 2.023 0 3.3-1.266 3.726-2.005l-1.49-1.055c-.533.739-1.171 1.266-2.235 1.266-1.065 0-1.703-.422-2.236-1.371l6.068-2.533zm-6.173 1.477c0-1.688 1.383-2.638 2.34-2.638.746 0 1.49.422 1.704.95zm-5.003 4.326h2.022v-13.19h-2.022zm-3.193-7.703c-.533-.527-1.383-1.056-2.448-1.056-2.236 0-4.365 2.006-4.365 4.538s2.023 4.432 4.365 4.432c1.064 0 1.915-.527 2.341-1.055h.107v.633c0 1.689-.958 2.639-2.448 2.639-1.171 0-2.023-.844-2.236-1.584l-1.702.74c.531 1.16 1.809 2.637 4.044 2.637 2.342 0 4.258-1.372 4.258-4.643v-8.02h-1.916zm-2.342 6.226c-1.383 0-2.554-1.16-2.554-2.744 0-1.582 1.17-2.743 2.554-2.743s2.448 1.161 2.448 2.743c0 1.583-1.064 2.744-2.448 2.744m25.971-11.713h-4.79v13.19h2.022v-4.96h2.768c2.235 0 4.364-1.582 4.364-4.115 0-2.532-2.129-4.115-4.364-4.115m.106 6.332h-2.874v-4.538h2.874c1.491 0 2.342 1.266 2.342 2.216-.107 1.16-.958 2.322-2.342 2.322m12.24-1.9c-1.489 0-2.979.633-3.512 2.005l1.81.738c.425-.738 1.064-.95 1.809-.95 1.065 0 2.022.634 2.129 1.69v.104c-.32-.21-1.171-.527-2.023-.527-1.915 0-3.832 1.055-3.832 2.955 0 1.794 1.597 2.954 3.301 2.954 1.383 0 2.021-.633 2.554-1.266h.106v1.055h1.916v-5.065c-.213-2.321-2.022-3.693-4.258-3.693m-.212 7.281c-.639 0-1.597-.316-1.597-1.16 0-1.056 1.171-1.373 2.129-1.373.852 0 1.277.212 1.809.422-.213 1.267-1.277 2.111-2.341 2.111m11.175-6.965-2.234 5.699h-.107l-2.341-5.698h-2.13l3.513 8.02-2.022 4.431h2.022L135 26.041zm-17.881 8.442h2.022v-13.19h-2.022z"/><path fill="url(#a)" d="M12.277 10.741c-.32.316-.425.844-.425 1.476v23.321c0 .634.212 1.162.531 1.478l.107.105 13.198-13.085v-.21z"/><path fill="url(#b)" d="m29.947 28.468-4.365-4.326v-.316l4.365-4.327.106.105 5.216 2.955c1.49.844 1.49 2.216 0 3.06z"/><path fill="url(#c)" d="m30.052 28.363-4.47-4.432-13.305 13.19c.532.528 1.277.528 2.236.106z"/><path fill="url(#d)" d="m30.053 19.499-15.54-8.759c-.958-.527-1.702-.422-2.236.106l13.307 13.085z"/><path fill="#fff" d="M51.548 14.26q0 1.414-.782 2.206-.777.79-2.171.79-1.458 0-2.326-.983-.864-.99-.864-2.65 0-1.63.864-2.596.864-.965 2.326-.965 1.13 0 1.92.623.796.617.99 1.655h-.912q-.218-.705-.744-1.09-.52-.387-1.254-.387-1.076 0-1.689.734-.608.729-.608 2.022 0 1.312.618 2.075.617.762 1.679.762.926 0 1.505-.545.58-.55.58-1.424v-.125h-1.965v-.763h2.833zm5.429 2.1v.781h-4.314v-6.963h4.314v.782H53.53v2.234h3.267v.772h-3.267v2.393zm3.778.781h-.869V10.96h-2.195v-.782h5.26v.782h-2.196zm6.007 0h-.868v-6.963h.868zm3.981 0h-.868V10.96h-2.196v-.782h5.26v.782h-2.196zm5.733-6.109q.863-.97 2.345-.97t2.345.97q.864.97.864 2.63t-.864 2.63q-.863.965-2.345.965t-2.345-.965q-.864-.97-.864-2.63t.864-2.63m4.034.589q-.623-.758-1.689-.758-1.065 0-1.694.758-.622.753-.622 2.041 0 1.284.622 2.041.628.753 1.694.753t1.689-.753q.627-.757.627-2.041 0-1.289-.627-2.041m3.46 5.52h-.86v-6.963h.845l3.812 5.467h.044v-5.467h.859v6.963h-.845l-3.812-5.448h-.043z"/><defs><linearGradient id="a" x1="24.411" x2="6.702" y1="12.017" y2="29.879" gradientUnits="userSpaceOnUse"><stop stop-color="#00A0FF"/><stop offset=".007" stop-color="#00A1FF"/><stop offset=".26" stop-color="#00BEFF"/><stop offset=".512" stop-color="#00D2FF"/><stop offset=".76" stop-color="#00DFFF"/><stop offset="1" stop-color="#00E3FF"/></linearGradient><linearGradient id="b" x1="37.221" x2="11.466" y1="23.933" y2="23.933" gradientUnits="userSpaceOnUse"><stop stop-color="#FFE000"/><stop offset=".409" stop-color="#FFBD00"/><stop offset=".775" stop-color="orange"/><stop offset="1" stop-color="#FF9C00"/></linearGradient><linearGradient id="c" x1="27.633" x2="3.618" y1="26.354" y2="50.577" gradientUnits="userSpaceOnUse"><stop stop-color="#FF3A44"/><stop offset="1" stop-color="#C31162"/></linearGradient><linearGradient id="d" x1="8.976" x2="19.699" y1="3.012" y2="13.829" gradientUnits="userSpaceOnUse"><stop stop-color="#32A071"/><stop offset=".069" stop-color="#2DA771"/><stop offset=".476" stop-color="#15CF74"/><stop offset=".801" stop-color="#06E775"/><stop offset="1" stop-color="#00F076"/></linearGradient></defs></svg>