
<svg viewBox="0 0 102 67" fill="none" xmlns="http://www.w3.org/2000/svg"><path d="M46.794 28.363l-.62 1.142c-.195-.098-5.086-2.807-8.152-9.008-2.12-4.341-3.13-8.551-3.13-13.219V1.306H.066V0h36.163v7.311c0 4.471.946 8.486 3 12.631 2.837 5.81 7.533 8.42 7.565 8.42z" fill="#FFFFFF"/><path d="M40.794 32.116h-1.305c0-2.285-.587-3.851-1.793-4.7-1.99-1.403-5.022-.359-5.055-.359l-.88.294v-.914c0-2.807-.783-4.83-2.348-6.07-2.804-2.22-7.207-1.176-7.24-1.176l-.814.196v-.816C21.359 7.964 3.554 2.578 0 1.631V.229c.62.164 1.924.523 3.62 1.077 2.087.718 4.793 1.73 7.532 3.134 7.207 3.72 11.185 8.322 11.544 13.316 1.532-.228 5.021-.457 7.565 1.567 1.728 1.37 2.674 3.46 2.837 6.266 1.239-.26 3.587-.522 5.38.751 1.533 1.11 2.316 3.035 2.316 5.777z" fill="#FFFFFF"/><path d="M69.228 36.13l-.815-.326c-15.098-6.168-17.804-7.278-23.217-12.696-6.066-6.07-5.837-13.12-5.837-13.415V.034h30.293v1.305h-28.99v8.388c0 .098-.195 6.822 5.447 12.468 5.217 5.222 7.89 6.332 22.793 12.403l.815.326-.489 1.208z" fill="#FFFFFF"/><path d="M45.391 41.647l-.424-1.24 1.696-.588c7.565-2.775 12.196-5.157 15.065-7.768l.88.946c-3 2.742-7.76 5.222-15.488 8.062l-1.729.588zm20.087-12.174l-1.141-.62c1.043-1.894 1.532-3.983 1.532-6.659 0-7.376-5.413-9.139-7.467-9.824-.196-.065-.359-.13-.49-.163a6.1 6.1 0 00-.912-.261c-1.044-.261-2.446-.588-2.446-2.285 0-.522.196-1.012.587-1.37.946-.915 2.74-.882 2.935-.882h7.467v3.558H64.24V8.715h-6.196c-.587 0-1.597.097-2.021.522a.54.54 0 00-.163.424c0 .588.293.75 1.467 1.012.359.098.75.163 1.109.326.097.033.228.098.423.13 2.055.686 8.381 2.742 8.381 11.065-.065 2.84-.62 5.222-1.76 7.279z" fill="#FFFFFF"/><path d="M64.745 27.958l-.57 1.174 5.015 2.44.57-1.175-5.015-2.439zM40.011 33.16l-.522-1.207c3.49-1.502 7.24-3.851 9.718-6.104l.88.98c-2.609 2.35-6.456 4.765-10.076 6.331z" fill="#FFFFFF"/><path d="M51.261 66.909H39.489V31.986h1.305v33.617h9.097c-.195-1.273-1.043-3.95-4.695-3.95h-.652v-8.387l.424-.163c.326-.13 8.021-3.33 8.021-15.47h1.305c0 11.586-6.685 15.633-8.446 16.481v6.267c5.348.392 5.413 5.81 5.413 5.875v.653zM90.098 50.59h-9.13V3.067h9.13v47.521zm-7.859-1.24h6.587V4.34h-6.587v45.01zM102 64.134h-9.13v-43.18H102v43.18zm-7.859-1.24h6.587v-40.7h-6.587v40.7z" fill="#FFFFFF"/><path d="M52.355 45.744l-.833 1.004 17.55 14.605.834-1.003-17.55-14.606zm17.004 8.501l-7.011-5.68.326-.489c1.663-2.643 1.565-5.548-.294-8.584-1.434-2.35-3.456-3.916-3.489-3.949l.783-1.044c.098.065 8.348 6.56 4.37 13.773l6.097 4.961-.782 1.012zM86.348 0h-1.63v3.492h1.63V0zM98.25 18.049h-1.63v3.492h1.63V18.05zm0 45.367h-1.63v3.493h1.63v-3.493zM86.348 50.002h-1.63v3.492h1.63v-3.492z" fill="#FFFFFF"/><path d="M78.228 61.36h-9.163V15.438h9.163V61.36zm-7.859-1.306h6.555v-43.31h-6.555v43.31z" fill="#FFFFFF"/><path d="M102 20.954l-8.25 25-4.435-8.29-7.598 12.893-4.206-5.092-7.272 9.433-1.272-.98 8.511-11.064 4.011 4.863 7.891-13.414 4.011 7.54 6.913-20.89H102z" fill="#FFFFFF"/><path d="M74.446 12.5h-1.63v3.493h1.63V12.5zm0 48.24h-1.63v3.492h1.63V60.74z" fill="#FFFFFF"/></svg>